<svg width="478" height="448" viewBox="0 0 478 448" fill="none" xmlns="http://www.w3.org/2000/svg">
<path d="M36 98C15.5 62 0 -5 0 -5H583V447.5H494C494 447.5 446 376.5 385.5 356C325 335.5 322 279.5 281 231C240 182.5 193 174.5 138.5 172C84 169.5 56.5 134 36 98Z" fill="#2EA4FF"/>
<path d="M77 70C56.5 34 41 -33 41 -33H624V419.5H535C535 419.5 487 348.5 426.5 328C366 307.5 363 251.5 322 203C281 154.5 234 146.5 179.5 144C125 141.5 97.5 106 77 70Z" fill="#5CB8FF"/>
<path d="M87 2C66.5 -34 51 -101 51 -101H634V351.5H545C545 351.5 497 280.5 436.5 260C376 239.5 373 183.5 332 135C291 86.5 244 78.5 189.5 76C135 73.5 107.5 38 87 2Z" fill="#85CAFF"/>
</svg>
